

PLOT

It's ten years after the kidnapping of Martin Bristol. Taken from a backyard swing at his home
at the age of six, he is forced to witness unspeakable crimes of a deranged madman. For years,
Martin's whereabouts have remained a mystery...until now.

 
http://www.imdb.com/title/tt0388230/


Encoded By .......: BigPerm1828
Runtime ..........: 1h 25mn
File Size ........: 794 MiB
Resolution .......: 704x396
IMDb URL .........: http://www.imdb.com/title/tt0388230/
Genre ............: Serial Killer | Bank | Kidnapping | Escape | Hostage
Language .........: English
Video
ID : 0
Format : MPEG-4 Visual
Format profile : Advanced Simple@L5
Format settings, BVOP : Yes
Format settings, QPel : No
Format settings, GMC : No warppoints
Format settings, Matrix : Default (H.263)
Codec ID : XVID
Codec ID/Hint : XviD
Duration : 1h 25mn
Bit rate : 840 Kbps
Width : 704 pixels
Height : 396 pixels
Display aspect ratio : 16:9
Frame rate : 23.976 fps
Color space : YUV
Chroma subsampling : 4:2:0
Bit depth : 8 bits
Scan type : Progressive
Compression mode : Lossy
Bits/(Pixel*Frame) : 0.126
Stream size : 516 MiB (65%)
Writing library : XviD 1.2.1 (UTC 2008-12-04)

Audio
ID : 1
Format : AC-3
Format/Info : Audio Coding 3
Mode extension : CM (complete main)
Codec ID : 2000
Duration : 1h 25mn
Bit rate mode : Constant
Bit rate : 448 Kbps
Channel(s) : 6 channels
Channel positions : Front: L C R, Side: L R, LFE
Sampling rate : 48.0 KHz
Bit depth : 16 bits
Compression mode : Lossy
Video delay : 42ms
Stream size : 275 MiB (35%)
Alignment : Split accross interleaves
Interleave, duration : 500 ms (11.99 video frames)
Interleave, preload duration : 500 ms
 
http://leetleech.org/images/66237236578752321347.png
 
http://leetleech.org/images/23811764161818142474.png
 
http://leetleech.org/images/83396389907813702234.png
 
http://leetleech.org/images/56933145950776582861.png